<svg width="22" height="22" viewBox="0 0 22 22" fill="none" xmlns="http://www.w3.org/2000/svg">
<g clip-path="url(#clip0_1332_1794)">
<rect width="22" height="22" rx="11" fill="white"/>
<path d="M9.46 16.06L17.215 8.305L15.675 6.765L9.46 12.98L6.325 9.845L4.785 11.385L9.46 16.06ZM11 22C9.47833 22 8.04833 21.7113 6.71 21.1337C5.37167 20.5562 4.2075 19.7725 3.2175 18.7825C2.2275 17.7925 1.44375 16.6283 0.86625 15.29C0.28875 13.9517 0 12.5217 0 11C0 9.47833 0.28875 8.04833 0.86625 6.71C1.44375 5.37167 2.2275 4.2075 3.2175 3.2175C4.2075 2.2275 5.37167 1.44375 6.71 0.86625C8.04833 0.28875 9.47833 0 11 0C12.5217 0 13.9517 0.28875 15.29 0.86625C16.6283 1.44375 17.7925 2.2275 18.7825 3.2175C19.7725 4.2075 20.5562 5.37167 21.1337 6.71C21.7113 8.04833 22 9.47833 22 11C22 12.5217 21.7113 13.9517 21.1337 15.29C20.5562 16.6283 19.7725 17.7925 18.7825 18.7825C17.7925 19.7725 16.6283 20.5562 15.29 21.1337C13.9517 21.7113 12.5217 22 11 22Z" fill="#2AB24B"/>
</g>
<defs>
<clipPath id="clip0_1332_1794">
<rect width="22" height="22" rx="11" fill="white"/>
</clipPath>
</defs>
</svg>
