<svg width="1440" height="1105" viewBox="0 0 1440 1105" fill="none" xmlns="http://www.w3.org/2000/svg">
<g opacity="0.4">
<path d="M5.4043 0H1434V1105H5.4043V0Z" fill="#F2F2F2"/>
<rect x="-6" width="119.05" height="140" fill="url(#paint0_linear_1311_18)"/>
<rect x="232.093" width="119.05" height="140" fill="url(#paint1_linear_1311_18)"/>
<rect x="470.2" width="119.05" height="140" fill="url(#paint2_linear_1311_18)"/>
<rect x="708.293" width="119.05" height="140" fill="url(#paint3_linear_1311_18)"/>
<rect x="946.399" width="119.05" height="140" fill="url(#paint4_linear_1311_18)"/>
<rect x="1184.49" width="119.05" height="140" fill="url(#paint5_linear_1311_18)"/>
<rect x="113.053" y="140" width="119.05" height="140" fill="url(#paint6_linear_1311_18)"/>
<rect x="351.146" y="140" width="119.05" height="140" fill="url(#paint7_linear_1311_18)"/>
<rect x="589.253" y="140" width="119.05" height="140" fill="url(#paint8_linear_1311_18)"/>
<rect x="827.346" y="140" width="119.05" height="140" fill="url(#paint9_linear_1311_18)"/>
<rect x="1065.44" y="140" width="119.05" height="140" fill="url(#paint10_linear_1311_18)"/>
<rect x="1303.55" y="140" width="119.05" height="140" fill="url(#paint11_linear_1311_18)"/>
<rect width="119.05" height="140" transform="matrix(1 0 0 -1 0 965)" fill="url(#paint12_linear_1311_18)"/>
<rect width="119.05" height="140" transform="matrix(1 0 0 -1 238.093 965)" fill="url(#paint13_linear_1311_18)"/>
<rect width="119.05" height="140" transform="matrix(1 0 0 -1 476.2 965)" fill="url(#paint14_linear_1311_18)"/>
<rect width="119.05" height="140" transform="matrix(1 0 0 -1 714.293 965)" fill="url(#paint15_linear_1311_18)"/>
<rect width="119.05" height="140" transform="matrix(1 0 0 -1 952.399 965)" fill="url(#paint16_linear_1311_18)"/>
<rect width="119.05" height="140" transform="matrix(1 0 0 -1 1190.49 965)" fill="url(#paint17_linear_1311_18)"/>
<rect width="119.05" height="140" transform="matrix(1 0 0 -1 130.054 1105)" fill="url(#paint18_linear_1311_18)"/>
<rect width="119.05" height="140" transform="matrix(1 0 0 -1 368.146 1105)" fill="url(#paint19_linear_1311_18)"/>
<rect width="119.05" height="140" transform="matrix(1 0 0 -1 606.254 1105)" fill="url(#paint20_linear_1311_18)"/>
<rect width="119.05" height="140" transform="matrix(1 0 0 -1 844.347 1105)" fill="url(#paint21_linear_1311_18)"/>
<rect width="119.05" height="140" transform="matrix(1 0 0 -1 1082.44 1105)" fill="url(#paint22_linear_1311_18)"/>
<rect width="119.05" height="140" transform="matrix(1 0 0 -1 1320.55 1105)" fill="url(#paint23_linear_1311_18)"/>
</g>
<defs>
<linearGradient id="paint0_linear_1311_18" x1="53.5248" y1="0" x2="53.5248" y2="140" gradientUnits="userSpaceOnUse">
<stop stop-color="white"/>
<stop offset="1" stop-color="#F2F2F2"/>
</linearGradient>
<linearGradient id="paint1_linear_1311_18" x1="291.618" y1="0" x2="291.618" y2="140" gradientUnits="userSpaceOnUse">
<stop stop-color="white"/>
<stop offset="1" stop-color="#F2F2F2"/>
</linearGradient>
<linearGradient id="paint2_linear_1311_18" x1="529.725" y1="0" x2="529.725" y2="140" gradientUnits="userSpaceOnUse">
<stop stop-color="white"/>
<stop offset="1" stop-color="#F2F2F2"/>
</linearGradient>
<linearGradient id="paint3_linear_1311_18" x1="767.818" y1="0" x2="767.818" y2="140" gradientUnits="userSpaceOnUse">
<stop stop-color="white"/>
<stop offset="1" stop-color="#F2F2F2"/>
</linearGradient>
<linearGradient id="paint4_linear_1311_18" x1="1005.92" y1="0" x2="1005.92" y2="140" gradientUnits="userSpaceOnUse">
<stop stop-color="white"/>
<stop offset="1" stop-color="#F2F2F2"/>
</linearGradient>
<linearGradient id="paint5_linear_1311_18" x1="1244.02" y1="0" x2="1244.02" y2="140" gradientUnits="userSpaceOnUse">
<stop stop-color="white"/>
<stop offset="1" stop-color="#F2F2F2"/>
</linearGradient>
<linearGradient id="paint6_linear_1311_18" x1="172.578" y1="140" x2="172.578" y2="280" gradientUnits="userSpaceOnUse">
<stop stop-color="white"/>
<stop offset="1" stop-color="#F2F2F2"/>
</linearGradient>
<linearGradient id="paint7_linear_1311_18" x1="410.67" y1="140" x2="410.67" y2="280" gradientUnits="userSpaceOnUse">
<stop stop-color="white"/>
<stop offset="1" stop-color="#F2F2F2"/>
</linearGradient>
<linearGradient id="paint8_linear_1311_18" x1="648.778" y1="140" x2="648.778" y2="280" gradientUnits="userSpaceOnUse">
<stop stop-color="white"/>
<stop offset="1" stop-color="#F2F2F2"/>
</linearGradient>
<linearGradient id="paint9_linear_1311_18" x1="886.871" y1="140" x2="886.871" y2="280" gradientUnits="userSpaceOnUse">
<stop stop-color="white"/>
<stop offset="1" stop-color="#F2F2F2"/>
</linearGradient>
<linearGradient id="paint10_linear_1311_18" x1="1124.96" y1="140" x2="1124.96" y2="280" gradientUnits="userSpaceOnUse">
<stop stop-color="white"/>
<stop offset="1" stop-color="#F2F2F2"/>
</linearGradient>
<linearGradient id="paint11_linear_1311_18" x1="1363.07" y1="140" x2="1363.07" y2="280" gradientUnits="userSpaceOnUse">
<stop stop-color="white"/>
<stop offset="1" stop-color="#F2F2F2"/>
</linearGradient>
<linearGradient id="paint12_linear_1311_18" x1="59.5248" y1="0" x2="59.5248" y2="140" gradientUnits="userSpaceOnUse">
<stop stop-color="white"/>
<stop offset="1" stop-color="#F2F2F2"/>
</linearGradient>
<linearGradient id="paint13_linear_1311_18" x1="59.5248" y1="0" x2="59.5248" y2="140" gradientUnits="userSpaceOnUse">
<stop stop-color="white"/>
<stop offset="1" stop-color="#F2F2F2"/>
</linearGradient>
<linearGradient id="paint14_linear_1311_18" x1="59.5248" y1="0" x2="59.5248" y2="140" gradientUnits="userSpaceOnUse">
<stop stop-color="white"/>
<stop offset="1" stop-color="#F2F2F2"/>
</linearGradient>
<linearGradient id="paint15_linear_1311_18" x1="59.5248" y1="0" x2="59.5248" y2="140" gradientUnits="userSpaceOnUse">
<stop stop-color="white"/>
<stop offset="1" stop-color="#F2F2F2"/>
</linearGradient>
<linearGradient id="paint16_linear_1311_18" x1="59.5248" y1="0" x2="59.5248" y2="140" gradientUnits="userSpaceOnUse">
<stop stop-color="white"/>
<stop offset="1" stop-color="#F2F2F2"/>
</linearGradient>
<linearGradient id="paint17_linear_1311_18" x1="59.5248" y1="0" x2="59.5248" y2="140" gradientUnits="userSpaceOnUse">
<stop stop-color="white"/>
<stop offset="1" stop-color="#F2F2F2"/>
</linearGradient>
<linearGradient id="paint18_linear_1311_18" x1="59.5248" y1="0" x2="59.5248" y2="140" gradientUnits="userSpaceOnUse">
<stop stop-color="white"/>
<stop offset="1" stop-color="#F2F2F2"/>
</linearGradient>
<linearGradient id="paint19_linear_1311_18" x1="59.5248" y1="0" x2="59.5248" y2="140" gradientUnits="userSpaceOnUse">
<stop stop-color="white"/>
<stop offset="1" stop-color="#F2F2F2"/>
</linearGradient>
<linearGradient id="paint20_linear_1311_18" x1="59.5248" y1="0" x2="59.5248" y2="140" gradientUnits="userSpaceOnUse">
<stop stop-color="white"/>
<stop offset="1" stop-color="#F2F2F2"/>
</linearGradient>
<linearGradient id="paint21_linear_1311_18" x1="59.5248" y1="0" x2="59.5248" y2="140" gradientUnits="userSpaceOnUse">
<stop stop-color="white"/>
<stop offset="1" stop-color="#F2F2F2"/>
</linearGradient>
<linearGradient id="paint22_linear_1311_18" x1="59.5248" y1="0" x2="59.5248" y2="140" gradientUnits="userSpaceOnUse">
<stop stop-color="white"/>
<stop offset="1" stop-color="#F2F2F2"/>
</linearGradient>
<linearGradient id="paint23_linear_1311_18" x1="59.5248" y1="0" x2="59.5248" y2="140" gradientUnits="userSpaceOnUse">
<stop stop-color="white"/>
<stop offset="1" stop-color="#F2F2F2"/>
</linearGradient>
</defs>
</svg>
