<svg width="1440" height="411" viewBox="0 0 1440 411" fill="none" xmlns="http://www.w3.org/2000/svg">
<path d="M-30 336.859C35.9686 287.859 81.5183 257.359 194.607 264.859C257.435 272.359 279.424 276.359 402.461 327.359C465.288 356.859 665.812 404.359 787.278 366.359C834.747 346.859 909.791 335.859 984.66 252.359C1059.01 173.859 1071.57 116.359 1233.35 52.3585C1267.91 38.6901 1352.72 11.3579 1470 49.3585" stroke="#9220E1" stroke-width="60"/>
<path d="M-30 336.859C35.9686 287.859 81.5183 257.359 194.607 264.859C257.435 272.359 279.424 276.359 402.461 327.359C465.288 356.859 665.812 404.359 787.278 366.359C834.747 346.859 909.791 335.859 984.66 252.359C1059.01 173.859 1071.57 116.359 1233.35 52.3585C1267.91 38.6901 1352.72 11.3579 1470 49.3585" stroke="white" stroke-width="4" stroke-dasharray="12 12"/>
</svg>
