<svg width="1440" height="411" viewBox="0 0 1440 411" fill="none" xmlns="http://www.w3.org/2000/svg">
<path d="M-30 73.623C35.9686 122.623 81.5183 153.124 194.607 145.623C257.435 138.124 279.424 134.124 402.461 83.1239C465.288 53.6239 665.812 6.1239 787.278 44.1239C834.747 63.6239 909.791 74.6239 984.66 158.124C1059.01 236.624 1071.57 294.124 1233.35 358.124C1267.91 371.792 1352.72 399.125 1470 361.124" stroke="#9220E1" stroke-width="60"/>
<path d="M-30 73.623C35.9686 122.623 81.5183 153.124 194.607 145.623C257.435 138.124 279.424 134.124 402.461 83.1239C465.288 53.6239 665.812 6.1239 787.278 44.1239C834.747 63.6239 909.791 74.6239 984.66 158.124C1059.01 236.624 1071.57 294.124 1233.35 358.124C1267.91 371.792 1352.72 399.125 1470 361.124" stroke="white" stroke-width="4" stroke-dasharray="12 12"/>
</svg>
