<svg width="16" height="16" viewBox="0 0 16 16" fill="none" xmlns="http://www.w3.org/2000/svg">
<path d="M10.667 5.33398C11.7279 5.33398 12.7453 5.75541 13.4954 6.50556C14.2456 7.2557 14.667 8.27312 14.667 9.33398V14.0007H12.0003V9.33398C12.0003 8.98036 11.8598 8.64122 11.6098 8.39118C11.3598 8.14113 11.0206 8.00065 10.667 8.00065C10.3134 8.00065 9.97423 8.14113 9.72418 8.39118C9.47413 8.64122 9.33366 8.98036 9.33366 9.33398V14.0007H6.66699V9.33398C6.66699 8.27312 7.08842 7.2557 7.83857 6.50556C8.58871 5.75541 9.60613 5.33398 10.667 5.33398Z" stroke="#EBEEFF" stroke-width="1.2" stroke-linecap="round" stroke-linejoin="round"/>
<path d="M3.99967 6H1.33301V14H3.99967V6Z" stroke="#EBEEFF" stroke-width="1.2" stroke-linecap="round" stroke-linejoin="round"/>
<path d="M2.66634 4.00065C3.40272 4.00065 3.99967 3.4037 3.99967 2.66732C3.99967 1.93094 3.40272 1.33398 2.66634 1.33398C1.92996 1.33398 1.33301 1.93094 1.33301 2.66732C1.33301 3.4037 1.92996 4.00065 2.66634 4.00065Z" stroke="#EBEEFF" stroke-width="1.2" stroke-linecap="round" stroke-linejoin="round"/>
</svg>
