<svg width="1254" height="191" viewBox="0 0 1254 191" fill="none" xmlns="http://www.w3.org/2000/svg">
<mask id="mask0_1332_1684" style="mask-type:alpha" maskUnits="userSpaceOnUse" x="8" y="0" width="1238" height="190">
<path d="M77.1882 151.8C35.1682 151.8 8.3282 121.88 8.3282 75.8996C8.3282 29.9196 35.1682 -0.000392199 77.1882 -0.000392199C118.988 -0.000392199 145.828 29.9196 145.828 75.8996C145.828 121.88 118.988 151.8 77.1882 151.8ZM77.1882 128.92C107.768 128.92 120.528 114.18 120.528 75.8996C120.528 37.6196 107.768 22.8796 77.1882 22.8796C46.6082 22.8796 33.6282 37.6196 33.6282 75.8996C33.6282 114.18 46.6082 128.92 77.1882 128.92ZM206.167 151.8C177.567 151.8 164.807 132.66 164.807 107.8V40.2596H188.567V103.62C188.567 123.2 196.047 131.34 214.967 131.34C233.227 131.34 243.567 123.42 243.567 101.86V40.2596H267.327V149.6H245.327V127.82H244.447C239.167 140.36 227.507 151.8 206.167 151.8ZM314.481 149.6H290.721V39.5996H312.501V56.9796H313.601C318.001 46.8596 328.121 38.0596 344.181 38.0596C367.061 38.0596 375.861 54.7796 375.861 75.2396V82.4996H352.101V78.0996C352.101 63.5796 347.921 58.2996 334.061 58.2996C319.761 58.2996 314.481 63.7996 314.481 78.3196V149.6ZM458.441 149.6H434.681V2.19961H497.381C528.181 2.19961 550.841 20.4596 550.841 52.1396C550.841 83.8196 528.181 102.08 497.381 102.08H458.441V149.6ZM500.241 23.5396H458.441V80.7396H500.241C519.601 80.7396 527.301 73.2596 527.301 52.1396C527.301 31.0196 519.601 23.5396 500.241 23.5396ZM593.277 151.8C573.697 151.8 558.517 141.68 558.517 122.54C558.517 104.5 571.717 95.0396 595.037 91.7396L633.317 86.0196V80.0796C633.317 63.7996 625.837 58.9596 608.677 58.9596C591.297 58.9596 584.477 64.4596 584.477 78.9796V82.2796H561.597V80.0796C561.597 55.6596 580.737 38.0596 609.997 38.0596C640.577 38.0596 655.977 56.5396 655.977 83.1596V149.6H633.977V132.44H632.877C626.497 142.78 613.957 151.8 593.277 151.8ZM581.617 120.78C581.617 129.36 587.117 132.88 600.977 132.88C616.377 132.88 633.317 126.72 633.317 104.72V102.74L598.557 108.02C586.017 109.78 581.617 112.64 581.617 120.78ZM727.359 152.02C693.259 152.02 673.899 128.92 673.899 95.0396C673.899 60.9396 693.919 38.0596 728.239 38.0596C757.059 38.0596 776.859 55.8796 776.859 82.0596V84.0396H753.319V82.7196C753.319 66.6596 744.959 59.3996 726.699 59.3996C705.579 59.3996 697.439 71.2796 697.439 95.0396C697.439 118.8 705.579 130.46 726.699 130.46C744.959 130.46 753.319 123.42 753.319 107.36V106.04H776.859V108.02C776.859 133.98 756.839 152.02 727.359 152.02ZM818.719 149.6H794.959V2.19961H818.719V83.5996H840.279L869.539 40.2596H897.479L859.419 91.9596L896.819 149.6H869.099L840.499 104.94H818.719V149.6ZM936.812 151.8C917.232 151.8 902.052 141.68 902.052 122.54C902.052 104.5 915.252 95.0396 938.572 91.7396L976.852 86.0196V80.0796C976.852 63.7996 969.372 58.9596 952.212 58.9596C934.832 58.9596 928.012 64.4596 928.012 78.9796V82.2796H905.132V80.0796C905.132 55.6596 924.272 38.0596 953.532 38.0596C984.112 38.0596 999.512 56.5396 999.512 83.1596V149.6H977.512V132.44H976.412C970.032 142.78 957.492 151.8 936.812 151.8ZM925.152 120.78C925.152 129.36 930.652 132.88 944.512 132.88C959.912 132.88 976.852 126.72 976.852 104.72V102.74L942.092 108.02C929.552 109.78 925.152 112.64 925.152 120.78ZM1064.29 139.26C1034.15 139.26 1017.43 119.46 1017.43 88.6596C1017.43 57.8596 1034.37 38.0596 1065.17 38.0596C1082.77 38.0596 1096.41 45.5396 1101.69 58.2996H1102.57V40.2596H1124.35V141.68C1124.35 174.02 1105.43 189.2 1073.53 189.2C1042.51 189.2 1023.15 174.46 1023.15 148.06H1046.69C1046.69 163.02 1052.19 168.08 1074.19 168.08C1095.53 168.08 1100.81 161.92 1100.81 141.68V119.9H1099.93C1094.87 130.46 1082.11 139.26 1064.29 139.26ZM1041.19 88.6596C1041.19 111.1 1050.43 119.02 1071.11 119.02C1088.93 119.02 1100.81 110.44 1100.81 91.9596V85.1396C1100.81 66.8796 1088.93 58.2996 1070.67 58.2996C1050.21 58.2996 1041.19 66.2196 1041.19 88.6596ZM1195.28 151.8C1159.2 151.8 1142.26 128.92 1142.26 94.8196C1142.26 60.9396 1162.5 38.0596 1195.06 38.0596C1224.54 38.0596 1245.22 55.6596 1245.22 85.5796C1245.22 91.2996 1244.56 97.2396 1243.9 100.54H1164.48C1165.36 120.56 1172.62 130.68 1195.5 130.68C1213.76 130.68 1220.8 124.52 1220.8 114.62V112.86H1244.34V114.84C1244.34 137.28 1224.76 151.8 1195.28 151.8ZM1194.62 58.0796C1173.94 58.0796 1166.02 67.7596 1164.7 84.6996H1222.56C1223.44 65.9996 1213.32 58.0796 1194.62 58.0796Z" fill="white"/>
</mask>
<g mask="url(#mask0_1332_1684)">
<rect y="2.59961" width="1254" height="188" fill="white"/>
<rect y="-1.40039" width="1254" height="90" fill="#130624"/>
</g>
</svg>
