<svg width="28" height="28" viewBox="0 0 28 28" fill="none" xmlns="http://www.w3.org/2000/svg">
<rect width="28" height="28" rx="14" fill="#7921CF"/>
<g clip-path="url(#clip0_1321_667)">
<path d="M20.6669 17.2807V19.2807C20.6677 19.4664 20.6297 19.6502 20.5553 19.8203C20.4809 19.9904 20.3718 20.1431 20.235 20.2686C20.0982 20.3941 19.9367 20.4897 19.7608 20.5492C19.5849 20.6087 19.3985 20.6308 19.2136 20.614C17.1622 20.3911 15.1916 19.6901 13.4603 18.5674C11.8495 17.5438 10.4838 16.1782 9.46028 14.5674C8.3336 12.8282 7.63244 10.848 7.41361 8.78738C7.39695 8.60303 7.41886 8.41722 7.47795 8.2418C7.53703 8.06637 7.63199 7.90518 7.75679 7.76846C7.88159 7.63175 8.03348 7.52252 8.20281 7.44773C8.37213 7.37294 8.55517 7.33422 8.74028 7.33405H10.7403C11.0638 7.33086 11.3775 7.44543 11.6228 7.6564C11.8681 7.86737 12.0283 8.16035 12.0736 8.48072C12.158 9.12076 12.3146 9.7492 12.5403 10.354C12.63 10.5927 12.6494 10.852 12.5962 11.1013C12.543 11.3506 12.4195 11.5795 12.2403 11.7607L11.3936 12.6074C12.3427 14.2764 13.7246 15.6583 15.3936 16.6074L16.2403 15.7607C16.4215 15.5815 16.6504 15.4579 16.8997 15.4048C17.149 15.3516 17.4083 15.371 17.6469 15.4607C18.2518 15.6864 18.8802 15.843 19.5203 15.9274C19.8441 15.9731 20.1399 16.1362 20.3513 16.3857C20.5627 16.6352 20.6751 16.9538 20.6669 17.2807Z" stroke="#EBEEFF" stroke-width="1.2" stroke-linecap="round" stroke-linejoin="round"/>
</g>
<defs>
<clipPath id="clip0_1321_667">
<rect width="16" height="16" fill="white" transform="translate(6 6)"/>
</clipPath>
</defs>
</svg>
