<svg width="28" height="28" viewBox="0 0 28 28" fill="none" xmlns="http://www.w3.org/2000/svg">
<rect width="28" height="28" rx="14" fill="#1EA458"/>
<g clip-path="url(#clip0_1320_647)">
<path fill-rule="evenodd" clip-rule="evenodd" d="M19.6421 8.32533C18.1448 6.82667 16.1541 6.00067 14.0334 6C9.66342 6 6.10675 9.556 6.10475 13.928C6.10409 15.3253 6.46942 16.6893 7.16342 17.892L6.03809 22L10.2408 20.8973C11.3988 21.5293 12.7028 21.862 14.0294 21.8627H14.0328C18.4021 21.8627 21.9594 18.306 21.9614 13.934C21.9628 11.816 21.1388 9.82333 19.6421 8.32533ZM14.0334 20.5233H14.0308C12.8481 20.5233 11.6888 20.2053 10.6768 19.6047L10.4361 19.462L7.94209 20.116L8.60809 17.684L8.45142 17.4347C7.79142 16.3853 7.44342 15.1727 7.44409 13.928C7.44542 10.2947 10.4021 7.33867 14.0368 7.33867C15.7968 7.33867 17.4514 8.02533 18.6954 9.27067C19.9394 10.5167 20.6241 12.172 20.6234 13.9327C20.6214 17.5673 17.6654 20.5233 14.0334 20.5233ZM17.6481 15.588C17.4501 15.4887 16.4761 15.0093 16.2941 14.9433C16.1128 14.8773 15.9808 14.844 15.8481 15.042C15.7154 15.24 15.3368 15.6867 15.2208 15.8193C15.1054 15.9513 14.9894 15.968 14.7914 15.8687C14.5934 15.7693 13.9548 15.5607 13.1981 14.8853C12.6094 14.36 12.2114 13.7113 12.0961 13.5127C11.9808 13.314 12.0841 13.2073 12.1828 13.1087C12.2721 13.02 12.3808 12.8773 12.4801 12.7613C12.5801 12.6467 12.6128 12.564 12.6794 12.4313C12.7454 12.2993 12.7128 12.1833 12.6628 12.084C12.6128 11.9853 12.2168 11.01 12.0521 10.6133C11.8914 10.2267 11.7281 10.2793 11.6061 10.2733C11.4908 10.2673 11.3588 10.2667 11.2261 10.2667C11.0941 10.2667 10.8794 10.316 10.6981 10.5147C10.5168 10.7133 10.0048 11.1927 10.0048 12.1673C10.0048 13.1427 10.7148 14.0847 10.8134 14.2167C10.9121 14.3487 12.2101 16.35 14.1974 17.208C14.6701 17.412 15.0394 17.534 15.3268 17.6253C15.8014 17.776 16.2334 17.7547 16.5748 17.704C16.9554 17.6473 17.7468 17.2247 17.9121 16.762C18.0774 16.2993 18.0774 15.902 18.0274 15.82C17.9781 15.7367 17.8461 15.6873 17.6481 15.588Z" fill="#EBEEFF"/>
</g>
<defs>
<clipPath id="clip0_1320_647">
<rect width="16" height="16" fill="white" transform="translate(6 6)"/>
</clipPath>
</defs>
</svg>
